<svg width="22" height="23" viewBox="0 0 22 23" version="1.1" xmlns="http://www.w3.org/2000/svg" xmlns:xlink="http://www.w3.org/1999/xlink">
<title>icon_settings-close</title>
<desc>Created using Figma</desc>
<g id="Canvas" transform="translate(-1285 -14)">
<g id="icon_settings-close">
<use xlink:href="#path0_fill" transform="translate(1285 14.75)" fill="#4A90E2"/>
</g>
</g>
<defs>
<path id="path0_fill" fill-rule="evenodd" d="M 16.5215 1.48242C 18.2116 2.45639 19.5472 3.7884 20.5283 5.47852C 21.5094 7.16863 22 9.0091 22 11C 22 12.9909 21.5094 14.8314 20.5283 16.5215C 19.5472 18.2116 18.2116 19.5472 16.5215 20.5283C 14.8314 21.5094 12.9909 22 11 22C 9.0091 22 7.16863 21.5094 5.47852 20.5283C 3.7884 19.5472 2.4528 18.2116 1.47168 16.5215C 0.490555 14.8314 0 12.9909 0 11C 0 9.0091 0.490555 7.16863 1.47168 5.47852C 2.4528 3.7884 3.7884 2.4528 5.47852 1.47168C 7.16863 0.490555 9.0091 0 11 0C 12.9909 0 14.8314 0.494136 16.5215 1.48242ZM 15.4043 14.3301L 12.0957 11L 15.4043 7.66992C 15.5618 7.51237 15.6406 7.32975 15.6406 7.12207C 15.6406 6.91439 15.5654 6.73535 15.415 6.58496C 15.2646 6.43457 15.082 6.35938 14.8672 6.35938C 14.6523 6.35938 14.4661 6.43099 14.3086 6.57422L 11 9.9043L 7.69141 6.57422C 7.53385 6.43099 7.34766 6.35938 7.13281 6.35938C 6.91797 6.35938 6.73535 6.43457 6.58496 6.58496C 6.43457 6.73535 6.35938 6.91797 6.35938 7.13281C 6.35938 7.34766 6.43815 7.52669 6.5957 7.66992L 9.9043 11L 6.5957 14.3301C 6.43815 14.4733 6.35938 14.6523 6.35938 14.8672C 6.35938 15.082 6.43457 15.2646 6.58496 15.415C 6.73535 15.5654 6.91797 15.6406 7.13281 15.6406C 7.34766 15.6406 7.53385 15.569 7.69141 15.4258L 11 12.0957L 14.3086 15.4258C 14.4661 15.569 14.6523 15.6406 14.8672 15.6406C 15.082 15.6406 15.2646 15.5654 15.415 15.415C 15.5654 15.2646 15.6406 15.082 15.6406 14.8672C 15.6406 14.6523 15.5618 14.4733 15.4043 14.3301Z"/>
</defs>
</svg>
