<svg width="116" height="116" viewBox="0 0 116 116" version="1.1" xmlns="http://www.w3.org/2000/svg" xmlns:xlink="http://www.w3.org/1999/xlink">
<title>icon_placeholder</title>
<desc>Created using Figma</desc>
<g id="Canvas" transform="translate(-130 -224)">
<g id="icon_placeholder">
<use xlink:href="#path0_fill" transform="translate(130 224.062)" fill="#B1C3D5"/>
</g>
</g>
<defs>
<path id="path0_fill" fill-rule="evenodd" d="M 68.2266 88.1953L 75.4375 93.1875C 74.8828 95.961 73.2188 98.1335 70.4453 99.7051C 67.6719 101.277 64.5287 102.062 61.0156 102.062L 36.0547 102.062C 34.7604 102.062 33.5586 102.34 32.4492 102.895L 17.75 115.375L 17.75 102.062L 13.3125 102.062C 9.61456 102.062 6.47137 100.999 3.88281 98.873C 1.29426 96.7467 0 94.0195 0 90.6914L 0 54.9141C 0 51.401 1.24803 48.4427 3.74414 46.0391C 6.24025 43.6354 9.24477 42.4336 12.7578 42.4336L 13.3125 42.4336L 13.3125 70.4453C 13.3125 75.0677 15.069 78.9505 18.582 82.0938C 22.0951 85.237 26.2552 86.8086 31.0625 86.8086L 63.5117 86.8086C 65.1758 86.8086 66.7474 87.2708 68.2266 88.1953ZM 97.9023 0C 102.71 0 106.824 1.61782 110.244 4.85352C 113.665 8.08921 115.375 12.0182 115.375 16.6406L 115.375 63.2344C 115.375 67.8568 113.665 71.7858 110.244 75.0215C 106.824 78.2572 102.71 79.875 97.9023 79.875L 93.1875 79.875L 93.1875 97.625L 72.3867 80.9844C 71.6471 80.2448 70.0755 79.875 67.6719 79.875L 39.6602 79.875C 34.8528 79.875 30.7389 78.2572 27.3184 75.0215C 23.8978 71.7858 22.1875 67.8568 22.1875 63.2344L 22.1875 16.6406C 22.1875 11.8333 23.5742 7.85809 26.3477 4.71484C 29.1211 1.5716 32.9114 0 37.7188 0L 97.9023 0Z"/>
</defs>
</svg>
